<?xml version="1.0" encoding="UTF-8"?>
<!DOCTYPE svg PUBLIC "-//W3C//DTD SVG 1.1//EN" "http://www.w3.org/Graphics/SVG/1.1/DTD/svg11.dtd">
<svg xmlns="http://www.w3.org/2000/svg" version="1.1" width="200px" height="200px" style="shape-rendering:geometricPrecision; text-rendering:geometricPrecision; image-rendering:optimizeQuality; fill-rule:evenodd; clip-rule:evenodd" xmlns:xlink="http://www.w3.org/1999/xlink">
<g><path style="opacity:0.866" fill="#3072c7" d="M 24.5,72.5 C 27.8806,72.4595 31.2139,72.7929 34.5,73.5C 34.6662,79.8421 34.4995,86.1754 34,92.5C 26.6415,88.073 19.1415,84.073 11.5,80.5C 11.281,79.325 11.6143,78.325 12.5,77.5C 16.4496,75.4144 20.4496,73.7477 24.5,72.5 Z"/></g>
<g><path style="opacity:0.817" fill="#3072c7" d="M 36.5,74.5 C 44.6666,77.8342 50.3333,83.6675 53.5,92C 48.8627,94.989 44.196,97.989 39.5,101C 38.552,101.483 37.552,101.649 36.5,101.5C 36.5,92.5 36.5,83.5 36.5,74.5 Z"/></g>
<g><path style="opacity:0.863" fill="#3072c7" d="M 8.5,80.5 C 14.1778,83.3359 19.5112,86.6692 24.5,90.5C 17.1667,94.8333 9.83333,99.1667 2.5,103.5C 0.594451,94.7879 2.59445,87.1212 8.5,80.5 Z"/></g>
<g><path style="opacity:0.839" fill="#3072c7" d="M 133.5,90.5 C 137.5,90.5 141.5,90.5 145.5,90.5C 146.197,94.9564 147.364,99.2898 149,103.5C 150.305,99.2515 151.805,95.0849 153.5,91C 157.152,90.5014 160.818,90.3347 164.5,90.5C 164.5,99.5 164.5,108.5 164.5,117.5C 161.482,117.665 158.482,117.498 155.5,117C 157.336,99.2561 156.169,99.0895 152,116.5C 149.281,117.444 146.448,117.777 143.5,117.5C 141.511,100.183 140.178,100.183 139.5,117.5C 136.833,117.5 134.167,117.5 131.5,117.5C 132.648,108.542 133.314,99.5423 133.5,90.5 Z"/></g>
<g><path style="opacity:0.845" fill="#3072c7" d="M 165.5,90.5 C 168.833,90.5 172.167,90.5 175.5,90.5C 176.89,96.5079 178.39,102.508 180,108.5C 182.962,102.743 185.795,96.91 188.5,91C 191.554,90.1786 194.554,90.3452 197.5,91.5C 193.333,99.8333 189.167,108.167 185,116.5C 181.545,117.791 178.045,117.791 174.5,116.5C 171.492,107.81 168.492,99.1432 165.5,90.5 Z"/></g>
<g><path style="opacity:0.859" fill="#3072c7" d="M 52.5,95.5 C 55.4165,103.362 53.7498,110.529 47.5,117C 46.5,117.667 45.5,117.667 44.5,117C 39.6669,114.418 35.0002,111.585 30.5,108.5C 37.8873,104.144 45.2206,99.8109 52.5,95.5 Z"/></g>
<g><path style="opacity:0.849" fill="#3072c7" d="M 61.5,96.5 C 66.6278,96.1115 71.6278,96.6115 76.5,98C 82.7572,103.636 83.0905,109.636 77.5,116C 73.5493,118.101 69.716,117.934 66,115.5C 65.5014,119.152 65.3347,122.818 65.5,126.5C 62.5,126.5 59.5,126.5 56.5,126.5C 57.4563,116.867 58.123,107.2 58.5,97.5C 59.791,97.7373 60.791,97.404 61.5,96.5 Z M 68.5,102.5 C 73.3841,104.933 73.7175,107.933 69.5,111.5C 65.9449,108.881 65.6115,105.881 68.5,102.5 Z"/></g>
<g><path style="opacity:0.818" fill="#3072c7" d="M 89.5,96.5 C 99.3506,94.6984 104.351,98.6984 104.5,108.5C 99.8215,108.334 95.1548,108.501 90.5,109C 91.8185,110.908 93.6518,111.742 96,111.5C 98.187,111.212 100.354,110.878 102.5,110.5C 102.326,112.861 101.993,115.194 101.5,117.5C 97.1539,117.666 92.8206,117.499 88.5,117C 82.8309,114.185 80.9976,109.685 83,103.5C 84.0183,99.9853 86.1849,97.652 89.5,96.5 Z M 93.5,101.5 C 94.6266,102.122 95.6266,102.955 96.5,104C 94.5,104.667 92.5,104.667 90.5,104C 91.5707,103.148 92.5707,102.315 93.5,101.5 Z"/></g>
<g><path style="opacity:0.819" fill="#3072c7" d="M 106.5,96.5 C 110.03,95.9889 113.196,96.6556 116,98.5C 125.381,94.1094 129.881,97.1094 129.5,107.5C 129.355,110.867 129.022,114.201 128.5,117.5C 125.833,117.5 123.167,117.5 120.5,117.5C 120.666,113.154 120.499,108.821 120,104.5C 117.298,103.359 115.631,104.359 115,107.5C 114.502,110.817 114.335,114.15 114.5,117.5C 111.5,117.5 108.5,117.5 105.5,117.5C 106.165,110.52 106.498,103.52 106.5,96.5 Z"/></g>
<g><path style="opacity:0.872" fill="#3072c7" d="M 16.5,97.5 C 17.8261,101.614 18.4927,106.114 18.5,111C 18.3333,115.5 18.1667,120 18,124.5C 10.2053,121.206 5.03861,115.54 2.5,107.5C 2.83333,106.833 3.16667,106.167 3.5,105.5C 8.06455,103.059 12.3979,100.392 16.5,97.5 Z"/></g>
<g><path style="opacity:0.826" fill="#3072c7" d="M 20.5,106.5 C 28.2816,110.951 36.2816,114.951 44.5,118.5C 44.719,119.675 44.3857,120.675 43.5,121.5C 36.2906,125.676 28.6239,127.009 20.5,125.5C 20.5,119.167 20.5,112.833 20.5,106.5 Z"/></g>
</svg>
