<?xml version="1.0" encoding="UTF-8"?>
<svg id="_图层_1" data-name="图层 1" xmlns="http://www.w3.org/2000/svg" viewBox="0 0 1696.43 438.4">
  <defs>
    <style>
      .cls-1 {
        fill: #00adee;
      }

      .cls-1, .cls-2 {
        stroke-width: 0px;
      }

      .cls-2 {
        fill: #036eb8;
      }
    </style>
  </defs>
  <g>
    <polygon class="cls-2" points="288.89 .12 372.48 95.65 372.48 174.22 288.89 174.22 288.78 174.22 205.2 174.22 205.2 95.65 288.78 .12 288.78 0 288.84 .06 288.89 0 288.89 .12"/>
    <polygon class="cls-2" points="288.78 264.18 205.2 264.18 205.2 342.75 288.78 438.29 288.78 438.4 288.84 438.34 288.89 438.4 288.89 438.29 372.48 342.75 372.48 264.18 288.89 264.18 288.78 264.18"/>
  </g>
  <g>
    <g>
      <path class="cls-2" d="M117.57,90.93c-13.56,0-24.55,10.99-24.55,24.56s10.99,24.55,24.55,24.55,24.55-10.99,24.55-24.55-10.99-24.56-24.55-24.56ZM117.57,130.21c-8.14,0-14.73-6.59-14.73-14.73s6.6-14.73,14.73-14.73,14.73,6.59,14.73,14.73-6.59,14.73-14.73,14.73Z"/>
      <path class="cls-2" d="M117.57,298.03c-13.56,0-24.55,10.99-24.55,24.55s10.99,24.56,24.55,24.56,24.55-10.99,24.55-24.56-10.99-24.55-24.55-24.55ZM117.57,337.32c-8.14,0-14.73-6.59-14.73-14.73s6.6-14.73,14.73-14.73,14.73,6.6,14.73,14.73-6.59,14.73-14.73,14.73Z"/>
      <path class="cls-2" d="M101.98,312.7l4.56-5.13s4.45-3.46,6.42-4.84L28.98,218.75l84.08-84.08c-1.75-1.31-4.25-3.14-5.96-4.17-2.85-1.71-5.12-5.69-5.12-5.69l-2.89-5.14L0,218.75l99.98,99.98c.84-2.8,1.99-6.04,1.99-6.04Z"/>
    </g>
    <g>
      <path class="cls-2" d="M435.56,115.48c0,13.56,10.99,24.55,24.55,24.55s24.55-10.99,24.55-24.55-10.99-24.56-24.55-24.56-24.55,10.99-24.55,24.56ZM445.38,115.48c0-8.14,6.59-14.73,14.73-14.73s14.73,6.59,14.73,14.73-6.59,14.73-14.73,14.73-14.73-6.59-14.73-14.73Z"/>
      <path class="cls-2" d="M435.56,322.58c0,13.56,10.99,24.56,24.55,24.56s24.55-10.99,24.55-24.56-10.99-24.55-24.55-24.55-24.55,10.99-24.55,24.55ZM445.38,322.58c0-8.13,6.59-14.73,14.73-14.73s14.73,6.6,14.73,14.73-6.59,14.73-14.73,14.73-14.73-6.59-14.73-14.73Z"/>
      <path class="cls-2" d="M475.7,312.7l-4.55-5.13s-4.45-3.46-6.43-4.84l83.98-83.98-84.08-84.08c1.75-1.31,4.25-3.14,5.96-4.17,2.85-1.71,5.12-5.69,5.12-5.69l2.89-5.14,99.09,99.09-99.99,99.98c-.84-2.8-1.99-6.04-1.99-6.04Z"/>
    </g>
  </g>
  <g>
    <g>
      <rect class="cls-1" x="679.66" y="168.39" width="18.21" height="90.92" transform="translate(902.61 -474.92) rotate(90)"/>
      <rect class="cls-1" x="673.94" y="205.17" width="18.21" height="102.35" transform="translate(939.39 -426.71) rotate(90)"/>
      <rect class="cls-1" x="803.84" y="135.75" width="18.21" height="80.75" transform="translate(989.07 -636.81) rotate(90)"/>
      <rect class="cls-1" x="941.1" y="107.84" width="18.21" height="27.72" transform="translate(1071.91 -828.5) rotate(90)"/>
      <rect class="cls-1" x="1065.07" y="-4.27" width="18.21" height="129.81" transform="translate(1134.81 -1013.55) rotate(90)"/>
      <rect class="cls-1" x="1065.07" y="34.16" width="18.21" height="129.81" transform="translate(1173.25 -975.11) rotate(90)"/>
      <rect class="cls-1" x="1226.11" y="26.07" width="18.21" height="65.56" transform="translate(1294.06 -1176.36) rotate(90)"/>
      <rect class="cls-1" x="1220.93" y="62.86" width="18.21" height="55.21" transform="translate(1320.5 -1139.57) rotate(90)"/>
      <rect class="cls-1" x="1269.85" y="40.28" width="18.21" height="37.13" transform="translate(1337.8 -1220.11) rotate(90)"/>
      <rect class="cls-1" x="1275.91" y="77.95" width="18.21" height="25.02" transform="translate(1375.48 -1194.55) rotate(90)"/>
      <path class="cls-1" d="M1249.8,116.63h-29.1c-10.09,0-18.27,8.18-18.27,18.27v130.55h25.02v-137.09h22.34v-11.72Z"/>
      <polygon class="cls-1" points="1232.62 54.89 1232.62 128.35 1232.62 265.45 1267.99 265.45 1267.99 54.89 1232.62 54.89"/>
      <polygon class="cls-1" points="1272.5 116.63 1272.5 168.55 1272.5 265.45 1297.52 265.45 1297.52 116.63 1272.5 116.63"/>
      <rect class="cls-1" x="1032.62" y="189.56" width="18.21" height="64.9" transform="translate(1263.74 -819.72) rotate(90)"/>
      <rect class="cls-1" x="1108.04" y="200.07" width="18.21" height="43.88" transform="translate(1339.16 -895.13) rotate(90)"/>
      <rect class="cls-1" x="1101.01" y="227.37" width="18.21" height="57.94" transform="translate(1366.46 -853.77) rotate(90)"/>
      <polygon class="cls-1" points="1426.62 162.13 1426.62 156.63 1309.31 210.39 1309.31 240.63 1426.62 186.86 1426.62 162.13"/>
      <rect class="cls-1" x="1038.26" y="218.25" width="18.21" height="76.19" transform="translate(1303.71 -791.03) rotate(90)"/>
      <rect class="cls-1" x="799.01" y="180.68" width="18.21" height="71.1" transform="translate(1024.35 -591.88) rotate(90)"/>
      <rect class="cls-1" x="941.1" y="184.76" width="18.21" height="27.72" transform="translate(1148.83 -751.58) rotate(90)"/>
      <rect class="cls-1" x="789.01" y="201.14" width="18.21" height="110.41" transform="translate(1054.45 -541.77) rotate(90)"/>
      <rect class="cls-1" x="723.86" y="136.46" width="41.97" height="128.98" transform="translate(1489.69 401.91) rotate(180)"/>
      <path class="cls-1" d="M693.35,48.36h-41.97v98.55h173.45c9.71,0,17.57-7.87,17.57-17.57v-63.4c0-9.71-7.87-17.57-17.57-17.57h-131.48ZM693.35,128.7v-62.13h101c3.36,0,6.09,2.73,6.09,6.09v49.95c0,3.36-2.73,6.09-6.09,6.09h-101Z"/>
      <path class="cls-1" d="M1009.52,118.25v78.44h112.23c9.71,0,17.57-7.87,17.57-17.57v-43.29c0-9.71-7.87-17.57-17.57-17.57h-112.23ZM1041.98,178.48v-42.02h59.31c3.36,0,6.09,2.73,6.09,6.09v29.84c0,3.36-2.73,6.09-6.09,6.09h-59.31Z"/>
      <polygon class="cls-1" points="684.24 167.02 662.57 185.23 734.22 185.23 734.22 167.02 684.24 167.02"/>
      <rect class="cls-1" x="1057.95" y="131.21" width="32.45" height="134.24" transform="translate(2148.36 396.66) rotate(180)"/>
      <rect class="cls-1" x="915.07" y="54.89" width="32.45" height="210.56" transform="translate(1862.6 320.33) rotate(180)"/>
      <path class="cls-1" d="M967.64,54.88h-38.88v18.21h32.79c3.36,0,6.09,2.73,6.09,6.09v161.96c0,3.36-2.73,6.09-6.09,6.09h-36.56v18.21h42.65s14.19,0,14.19,0c10.09,0,18.27-8.18,18.27-18.27V73.15c0-10.09-8.18-18.27-18.27-18.27h-14.19Z"/>
      <rect class="cls-1" x="1065.61" y="93.1" width="18.21" height="128.74" transform="translate(1232.19 -917.24) rotate(90)"/>
      <rect class="cls-1" x="717.38" y="30.28" width="18.21" height="133.15" transform="translate(823.34 -629.63) rotate(90)"/>
      <polygon class="cls-1" points="1372.94 42.1 1366 42.1 1366 265.45 1372.94 265.45 1407.97 265.45 1407.97 42.1 1372.94 42.1"/>
      <rect class="cls-1" x="1028.18" y="74.85" width="35.03" height="24.96" transform="translate(2091.39 174.65) rotate(180)"/>
      <rect class="cls-1" x="1085.15" y="74.85" width="35.03" height="24.15" transform="translate(2205.32 173.84) rotate(180)"/>
      <rect class="cls-1" x="1053.15" y="42.1" width="42.05" height="23.76" transform="translate(2148.36 107.95) rotate(180)"/>
      <path class="cls-1" d="M1337.31,61.18h-22.54l5.78,45.68h31.95l-4.43-36.16c-.67-5.43-5.28-9.51-10.75-9.51Z"/>
      <path class="cls-1" d="M1337.31,126.4h-22.54l5.78,45.68h31.95l-4.43-36.16c-.67-5.43-5.28-9.51-10.75-9.51Z"/>
      <path class="cls-1" d="M678,182.61l-4.21,14.08h-43.06l7.22-24.03c3.59-11.95,12.94-19.9,23.39-19.9h25.65l-4.21,13.87-4.78,15.98Z"/>
    </g>
    <rect class="cls-2" x="897.58" y="370.53" width="17.49" height="13.64"/>
    <rect class="cls-2" x="1447.54" y="370.53" width="17.49" height="13.64"/>
    <g>
      <rect class="cls-2" x="1028.18" y="330.83" width="17.49" height="53.34"/>
      <path class="cls-2" d="M1066.72,330.83h-17.63v7.26h17.63v46.08h17.49v-46.08h0c0-4.01-3.25-7.26-7.26-7.26h-10.23Z"/>
    </g>
    <g>
      <rect class="cls-2" x="1379.95" y="330.83" width="17.49" height="53.34"/>
      <path class="cls-2" d="M1418.49,330.83h-17.63v7.26h17.63v46.08h17.49v-46.08h0c0-4.01-3.25-7.26-7.26-7.26h-10.23Z"/>
    </g>
    <g>
      <path class="cls-2" d="M981.02,338.09v-7.26h-40.36s-8.06,0-8.06,0c-4.21,0-7.62,3.41-7.62,7.62v16.07c0,4.21,3.41,7.62,7.62,7.62h27.36v-7.26h-14.94c-1.4,0-2.54-1.14-2.54-2.54v-11.7c0-1.4,1.14-2.54,2.54-2.54h36Z"/>
      <path class="cls-2" d="M981.02,354.85h-17.49v22.06s-38.54,0-38.54,0v7.26h40.36s8.06,0,8.06,0c4.21,0,7.62-3.41,7.62-7.62v-21.71Z"/>
    </g>
    <g>
      <path class="cls-2" d="M1130.33,338.09v-7.26h-19.45s-8.06,0-8.06,0c-4.21,0-7.62,3.41-7.62,7.62v38.12c0,4.21,3.41,7.62,7.62,7.62h27.51v-7.26h-15.09c-1.4,0-2.54-1.14-2.54-2.54v-33.74c0-1.4,1.14-2.54,2.54-2.54h15.09Z"/>
      <path class="cls-2" d="M1151.24,330.83h-17.49v78.11s-38.54,0-38.54,0v7.26h40.36s8.06,0,8.06,0c4.21,0,7.62-3.41,7.62-7.62v-77.75Z"/>
    </g>
    <g>
      <rect class="cls-2" x="1220.34" y="330.83" width="17.49" height="53.34"/>
      <path class="cls-2" d="M1229.08,376.91v7.26s29.79,0,29.79,0h5.5s4.73,0,4.73,0c4.01,0,7.26-3.25,7.26-7.26v-38.82s0,0,0,0c0-4.01-3.25-7.26-7.26-7.26h-10.23s-24.55,0-24.55,0l-.92,7.26h22.94c1.4,0,2.54,1.14,2.54,2.54v33.74c0,1.4-1.14,2.54-2.54,2.54h-27.25Z"/>
    </g>
    <g>
      <rect class="cls-2" x="1544.92" y="330.83" width="17.49" height="53.34"/>
      <path class="cls-2" d="M1553.67,376.91v7.26s29.79,0,29.79,0h5.5s4.73,0,4.73,0c4.01,0,7.26-3.25,7.26-7.26v-38.82s0,0,0,0c0-4.01-3.25-7.26-7.26-7.26h-10.23s-24.55,0-24.55,0l-.92,7.26h22.94c1.4,0,2.54,1.14,2.54,2.54v33.74c0,1.4-1.14,2.54-2.54,2.54h-27.25Z"/>
    </g>
    <g>
      <path class="cls-2" d="M1191.14,384.17h17.63s0-7.26,0-7.26h-17.63s0-57.76,0-57.76h-17.49s0,57.76,0,57.76h0c0,4.01,3.25,7.26,7.26,7.26h10.23Z"/>
      <rect class="cls-2" x="1170.63" y="318.92" width="7.26" height="31.07" transform="translate(1508.72 -839.8) rotate(90)"/>
      <rect class="cls-2" x="1198.08" y="327.39" width="7.26" height="14.13" transform="translate(1536.17 -867.25) rotate(90)"/>
    </g>
    <g>
      <rect class="cls-2" x="996.78" y="330.83" width="17.49" height="53.34"/>
      <rect class="cls-2" x="1001.89" y="314.03" width="7.26" height="17.5" transform="translate(1328.3 -682.75) rotate(90)"/>
    </g>
    <g>
      <path class="cls-2" d="M698.64,330.72l-8.23,34.79c-.62,2.62-3.9,2.62-4.52,0l-8.23-34.79h-16.71l12.65,53.56h23.71c3.18,0,5.97-2.42,6.79-5.9l11.26-47.66h-16.71Z"/>
      <path class="cls-2" d="M661.18,352.36l-3.11,13.15c-.62,2.62-3.9,2.62-4.52,0l-8.23-34.79h-16.71l11.26,47.66c.82,3.48,3.61,5.9,6.79,5.9h23.2l-7.54-31.92c-.15-.66-.98-.66-1.13,0Z"/>
    </g>
    <g>
      <path class="cls-2" d="M790.02,330.72l-8.23,34.79c-.62,2.62-3.9,2.62-4.52,0l-8.23-34.79h-16.71l12.65,53.56h23.71c3.18,0,5.97-2.42,6.79-5.9l11.26-47.66h-16.71Z"/>
      <path class="cls-2" d="M752.56,352.36l-3.11,13.15c-.62,2.62-3.9,2.62-4.52,0l-8.23-34.79h-16.71l11.26,47.66c.82,3.48,3.61,5.9,6.79,5.9h23.2l-7.54-31.92c-.15-.66-.98-.66-1.13,0Z"/>
    </g>
    <g>
      <path class="cls-2" d="M881.4,330.72l-8.23,34.79c-.62,2.62-3.9,2.62-4.52,0l-8.23-34.79h-16.71l12.65,53.56h23.71c3.18,0,5.97-2.42,6.79-5.9l11.26-47.66h-16.71Z"/>
      <path class="cls-2" d="M843.94,352.36l-3.11,13.15c-.62,2.62-3.9,2.62-4.52,0l-8.23-34.79h-16.71l11.26,47.66c.82,3.48,3.61,5.9,6.79,5.9h23.2l-7.54-31.92c-.15-.66-.98-.66-1.13,0Z"/>
    </g>
    <path class="cls-2" d="M1533.5,338.09v-7.26s-38.54,0-38.54,0h-5.5s-4.73,0-4.73,0c-4.01,0-7.26,3.25-7.26,7.26v38.82s0,0,0,0c0,4.01,3.25,7.26,7.26,7.26h10.23s38.54,0,38.54,0v-7.26s-36,0-36,0c-1.4,0-2.54-1.14-2.54-2.54v-33.74c0-1.4,1.14-2.54,2.54-2.54h36Z"/>
    <g>
      <path class="cls-2" d="M1611.01,384.16l11.26-47.51c.81-3.43,3.57-5.82,6.72-5.82h13.54c2.54,0,4.8,1.85,5.58,4.59l2.97,10.42,1.87,6.54c.23.73,1.17.73,1.41,0l1.87-6.61,5.8,24.39-3.34,14.01h-10.02s-3.34-14.01-3.34-14.01l-4.92-20.62c-.59-2.58-3.87-2.58-4.51,0l-8.2,34.63h-16.7Z"/>
      <path class="cls-2" d="M1645.34,370.15l5.74-24.32,1.87,6.54c.23.73,1.17.73,1.41,0l1.87-6.61,2.97-10.36c.78-2.73,3.03-4.58,5.58-4.58h13.61c3.16,0,5.92,2.45,6.8,5.88l11.25,47.46h-16.76s-8.2-34.63-8.2-34.63c-.64-2.58-3.93-2.58-4.51,0l-4.92,20.62-3.34,14.01h-10.02s-3.34-14.01-3.34-14.01Z"/>
    </g>
    <g>
      <path class="cls-2" d="M1370.44,330.83l-11.26,47.51c-.81,3.43-3.57,5.82-6.72,5.82h-13.54c-2.54,0-4.8-1.85-5.58-4.59l-2.97-10.42-1.87-6.54c-.23-.73-1.17-.73-1.41,0l-1.87,6.61-5.8-24.39,3.34-14.01h10.02s3.34,14.01,3.34,14.01l4.92,20.62c.59,2.58,3.87,2.58,4.51,0l8.2-34.63h16.7Z"/>
      <path class="cls-2" d="M1336.1,344.84l-5.74,24.32-1.87-6.54c-.23-.73-1.17-.73-1.41,0l-1.87,6.61-2.97,10.36c-.78,2.73-3.03,4.58-5.58,4.58h-13.61c-3.16,0-5.92-2.45-6.8-5.88l-11.25-47.46h16.76s8.2,34.63,8.2,34.63c.64,2.58,3.93,2.58,4.51,0l4.92-20.62,3.34-14.01h10.02s3.34,14.01,3.34,14.01Z"/>
    </g>
    <g>
      <rect class="cls-1" x="1493.13" y="42.62" width="41.97" height="222.83" transform="translate(3028.22 308.07) rotate(180)"/>
      <rect class="cls-1" x="1484.03" y="83.65" width="18.21" height="44.28" transform="translate(1598.93 -1387.33) rotate(90)"/>
      <rect class="cls-1" x="1537.95" y="96.69" width="18.21" height="18.21" transform="translate(1652.85 -1441.26) rotate(90)"/>
      <rect class="cls-1" x="1588.16" y="38.96" width="18.21" height="77.1" transform="translate(1674.77 -1519.75) rotate(90)"/>
      <rect class="cls-1" x="1663.16" y="56.53" width="18.21" height="41.97" transform="translate(1749.78 -1594.76) rotate(90)"/>
      <rect class="cls-1" x="1490.87" y="227.35" width="18.21" height="57.98" transform="translate(1756.32 -1243.64) rotate(90)"/>
      <rect class="cls-1" x="1606.59" y="42.62" width="41.97" height="82.95"/>
      <polygon class="cls-1" points="1470.91 218.66 1510.06 154.87 1494.48 145.45 1470.91 183.46 1470.91 218.66"/>
      <path class="cls-1" d="M1558.71,125.26v18.21h90.14c1.35,0,2.44,1.09,2.44,2.44v8.38c0,.59-.21,1.15-.6,1.6l-96.59,109.53h50.63l84.77-98.6c2.39-2.76,3.71-6.3,3.71-9.95l.03-25.52c0-3.36-2.73-6.09-6.09-6.09h-128.45Z"/>
      <polygon class="cls-1" points="1558.71 159.56 1645.76 265.43 1696.43 265.43 1605.08 159.56 1558.71 159.56"/>
    </g>
  </g>
</svg>